<svg width="40" height="40" viewBox="0 0 40 40" fill="none" xmlns="http://www.w3.org/2000/svg">
<path fill-rule="evenodd" clip-rule="evenodd" d="M0 20C0 31.0457 8.9543 40 20 40C31.0457 40 40 31.0457 40 20C40 8.9543 31.0457 0 20 0C8.9543 0 0 8.9543 0 20ZM16.3333 29.1667L16.6736 24.0685L16.6733 24.0683L25.9474 15.6992C26.3544 15.3379 25.8585 15.1618 25.3182 15.4894L13.8727 22.7103L8.9289 21.1672C7.86125 20.8403 7.85358 20.1067 9.1686 19.5792L28.4336 12.1507C29.3135 11.7513 30.1627 12.3621 29.8268 13.7088L26.546 29.1693C26.3169 30.2679 25.6531 30.5307 24.7333 30.0232L19.7356 26.3308L17.3333 28.6667C17.3258 28.674 17.3182 28.6814 17.3107 28.6887C17.042 28.9502 16.8198 29.1667 16.3333 29.1667Z" fill="#263238"/>
</svg>
