<svg width="351" height="142" viewBox="0 0 351 142" fill="none" xmlns="http://www.w3.org/2000/svg">
<path d="M1 22H66.5H351V142H1V22Z" fill="#BFE4D0"/>
<path d="M18 22H1V141H350.5V22H66.5" stroke="#009344" stroke-linecap="round" stroke-linejoin="round" stroke-dasharray="4 4"/>
<path d="M39.684 15.512C42.204 15.512 44.28 16.304 45.912 17.888C47.544 19.448 48.36 21.476 48.36 23.972C48.36 26.468 47.544 28.508 45.912 30.092C44.28 31.676 42.204 32.468 39.684 32.468C37.116 32.468 35.028 31.676 33.42 30.092C31.812 28.508 31.008 26.468 31.008 23.972C31.008 22.004 31.512 20.324 32.52 18.932L40.62 6.8H44.436L38.496 15.584C39.216 15.536 39.612 15.512 39.684 15.512ZM39.684 18.716C38.076 18.716 36.78 19.196 35.796 20.156C34.812 21.116 34.32 22.388 34.32 23.972C34.32 25.556 34.812 26.84 35.796 27.824C36.804 28.784 38.1 29.264 39.684 29.264C41.268 29.264 42.552 28.784 43.536 27.824C44.544 26.84 45.048 25.556 45.048 23.972C45.048 22.388 44.544 21.116 43.536 20.156C42.552 19.196 41.268 18.716 39.684 18.716Z" fill="#009344"/>
<path d="M90.084 63.184C92.004 63.184 93.564 63.814 94.764 65.074C95.988 66.322 96.6 67.864 96.6 69.7C96.6 71.536 95.988 73.084 94.764 74.344C93.552 75.592 91.992 76.216 90.084 76.216C88.932 76.216 87.864 75.934 86.88 75.37C85.896 74.806 85.146 74.05 84.63 73.102L85.746 72.472C86.142 73.24 86.73 73.852 87.51 74.308C88.29 74.764 89.148 74.992 90.084 74.992C91.524 74.992 92.724 74.548 93.684 73.66C94.632 72.784 95.172 71.662 95.304 70.294H88.41V69.106H95.304C95.172 67.738 94.632 66.616 93.684 65.74C92.724 64.852 91.524 64.408 90.084 64.408C89.148 64.408 88.29 64.636 87.51 65.092C86.73 65.548 86.142 66.16 85.746 66.928L84.63 66.28C85.17 65.332 85.926 64.582 86.898 64.03C87.87 63.466 88.932 63.184 90.084 63.184ZM97.5042 67H105.064V68.152H101.878V76H100.69V68.152H97.5042V67ZM113.9 68.764V67H115.088V76H113.9V74.236C113.072 75.556 111.86 76.216 110.264 76.216C108.98 76.216 107.882 75.76 106.97 74.848C106.07 73.936 105.62 72.82 105.62 71.5C105.62 70.18 106.07 69.064 106.97 68.152C107.882 67.24 108.98 66.784 110.264 66.784C111.86 66.784 113.072 67.444 113.9 68.764ZM107.834 74.038C108.518 74.722 109.358 75.064 110.354 75.064C111.35 75.064 112.19 74.722 112.874 74.038C113.558 73.33 113.9 72.484 113.9 71.5C113.9 70.504 113.558 69.664 112.874 68.98C112.19 68.284 111.35 67.936 110.354 67.936C109.358 67.936 108.518 68.284 107.834 68.98C107.15 69.664 106.808 70.504 106.808 71.5C106.808 72.484 107.15 73.33 107.834 74.038ZM117.604 67H125.164V76H123.976V68.152H118.792V76H117.604V67ZM137 66.784C138.284 66.784 139.376 67.24 140.276 68.152C141.188 69.064 141.644 70.18 141.644 71.5C141.644 72.82 141.188 73.936 140.276 74.848C139.376 75.76 138.284 76.216 137 76.216C135.404 76.216 134.192 75.556 133.364 74.236V79.6H132.176V67H133.364V68.764C134.192 67.444 135.404 66.784 137 66.784ZM134.39 74.038C135.074 74.722 135.914 75.064 136.91 75.064C137.906 75.064 138.746 74.722 139.43 74.038C140.114 73.33 140.456 72.484 140.456 71.5C140.456 70.504 140.114 69.664 139.43 68.98C138.746 68.284 137.906 67.936 136.91 67.936C135.914 67.936 135.074 68.284 134.39 68.98C133.706 69.664 133.364 70.504 133.364 71.5C133.364 72.484 133.706 73.33 134.39 74.038ZM151.359 68.764V67H152.547V76H151.359V74.236C150.531 75.556 149.319 76.216 147.723 76.216C146.439 76.216 145.341 75.76 144.429 74.848C143.529 73.936 143.079 72.82 143.079 71.5C143.079 70.18 143.529 69.064 144.429 68.152C145.341 67.24 146.439 66.784 147.723 66.784C149.319 66.784 150.531 67.444 151.359 68.764ZM145.293 74.038C145.977 74.722 146.817 75.064 147.813 75.064C148.809 75.064 149.649 74.722 150.333 74.038C151.017 73.33 151.359 72.484 151.359 71.5C151.359 70.504 151.017 69.664 150.333 68.98C149.649 68.284 148.809 67.936 147.813 67.936C146.817 67.936 145.977 68.284 145.293 68.98C144.609 69.664 144.267 70.504 144.267 71.5C144.267 72.484 144.609 73.33 145.293 74.038ZM159.059 76.216C157.775 76.216 156.695 75.79 155.819 74.938C154.955 74.074 154.523 72.958 154.523 71.59C154.523 70.054 154.751 68.878 155.207 68.062C155.663 67.234 156.587 66.484 157.979 65.812C158.423 65.608 158.771 65.452 159.023 65.344C159.443 65.176 159.773 65.032 160.013 64.912C161.057 64.432 161.585 63.838 161.597 63.13L162.533 63.67C162.473 63.97 162.377 64.24 162.245 64.48C162.089 64.744 161.933 64.954 161.777 65.11C161.633 65.266 161.405 65.434 161.093 65.614C160.889 65.734 160.643 65.866 160.355 66.01L159.455 66.388L158.609 66.748C157.781 67.108 157.163 67.486 156.755 67.882C156.359 68.266 156.077 68.77 155.909 69.394C156.293 68.878 156.797 68.488 157.421 68.224C158.045 67.948 158.675 67.81 159.311 67.81C160.511 67.81 161.501 68.206 162.281 68.998C163.073 69.778 163.469 70.78 163.469 72.004C163.469 73.216 163.049 74.224 162.209 75.028C161.381 75.82 160.331 76.216 159.059 76.216ZM156.719 74.146C157.343 74.734 158.123 75.028 159.059 75.028C159.995 75.028 160.763 74.746 161.363 74.182C161.975 73.606 162.281 72.88 162.281 72.004C162.281 71.116 161.993 70.39 161.417 69.826C160.853 69.25 160.097 68.962 159.149 68.962C158.297 68.962 157.523 69.232 156.827 69.772C156.131 70.288 155.783 70.996 155.783 71.896C155.783 72.808 156.095 73.558 156.719 74.146ZM172.818 74.866C171.894 75.766 170.778 76.216 169.47 76.216C168.138 76.216 167.016 75.766 166.104 74.866C165.192 73.954 164.736 72.832 164.736 71.5C164.736 70.168 165.192 69.052 166.104 68.152C167.016 67.24 168.138 66.784 169.47 66.784C170.79 66.784 171.906 67.24 172.818 68.152C173.742 69.052 174.204 70.168 174.204 71.5C174.204 72.82 173.742 73.942 172.818 74.866ZM166.95 74.038C167.634 74.722 168.474 75.064 169.47 75.064C170.466 75.064 171.306 74.722 171.99 74.038C172.674 73.33 173.016 72.484 173.016 71.5C173.016 70.504 172.674 69.664 171.99 68.98C171.306 68.284 170.466 67.936 169.47 67.936C168.474 67.936 167.634 68.284 166.95 68.98C166.266 69.664 165.924 70.504 165.924 71.5C165.924 72.484 166.266 73.33 166.95 74.038ZM174.76 67H182.32V68.152H179.134V76H177.946V68.152H174.76V67ZM184.956 70.42H187.422C188.25 70.42 188.958 70.684 189.546 71.212C190.134 71.728 190.428 72.394 190.428 73.21C190.428 74.038 190.134 74.71 189.546 75.226C188.982 75.742 188.274 76 187.422 76H183.768V67H184.956V70.42ZM191.688 76V67H192.876V76H191.688ZM184.956 74.848H187.422C187.938 74.848 188.37 74.698 188.718 74.398C189.066 74.086 189.24 73.69 189.24 73.21C189.24 72.73 189.066 72.34 188.718 72.04C188.37 71.728 187.938 71.572 187.422 71.572H184.956V74.848ZM203.415 67.9C204.639 67.9 205.653 68.29 206.457 69.07C207.249 69.85 207.645 70.846 207.645 72.058C207.645 73.294 207.249 74.296 206.457 75.064C205.677 75.832 204.663 76.216 203.415 76.216C202.167 76.216 201.153 75.832 200.373 75.064C199.581 74.296 199.185 73.294 199.185 72.058C199.185 71.11 199.443 70.27 199.959 69.538L204.081 63.4H205.503L202.407 68.008C202.731 67.936 203.067 67.9 203.415 67.9ZM201.255 74.182C201.819 74.722 202.539 74.992 203.415 74.992C204.303 74.992 205.017 74.722 205.557 74.182C206.109 73.642 206.385 72.934 206.385 72.058C206.385 71.182 206.109 70.474 205.557 69.934C205.017 69.394 204.303 69.124 203.415 69.124C202.539 69.124 201.819 69.394 201.255 69.934C200.715 70.474 200.445 71.182 200.445 72.058C200.445 72.934 200.715 73.642 201.255 74.182ZM88.032 91.52L94.26 98H92.604L86.7 91.898V98H85.44V85.4H86.7V91.16L92.424 85.4H94.08L88.032 91.52ZM100.525 88.784C101.809 88.784 102.901 89.24 103.801 90.152C104.713 91.064 105.169 92.18 105.169 93.5C105.169 94.82 104.713 95.936 103.801 96.848C102.901 97.76 101.809 98.216 100.525 98.216C98.9294 98.216 97.7174 97.556 96.8894 96.236V101.6H95.7014V89H96.8894V90.764C97.7174 89.444 98.9294 88.784 100.525 88.784ZM97.9154 96.038C98.5994 96.722 99.4394 97.064 100.435 97.064C101.431 97.064 102.271 96.722 102.955 96.038C103.639 95.33 103.981 94.484 103.981 93.5C103.981 92.504 103.639 91.664 102.955 90.98C102.271 90.284 101.431 89.936 100.435 89.936C99.4394 89.936 98.5994 90.284 97.9154 90.98C97.2314 91.664 96.8894 92.504 96.8894 93.5C96.8894 94.484 97.2314 95.33 97.9154 96.038ZM114.885 90.764V89H116.073V98H114.885V96.236C114.057 97.556 112.845 98.216 111.249 98.216C109.965 98.216 108.867 97.76 107.955 96.848C107.055 95.936 106.605 94.82 106.605 93.5C106.605 92.18 107.055 91.064 107.955 90.152C108.867 89.24 109.965 88.784 111.249 88.784C112.845 88.784 114.057 89.444 114.885 90.764ZM108.819 96.038C109.503 96.722 110.343 97.064 111.339 97.064C112.335 97.064 113.175 96.722 113.859 96.038C114.543 95.33 114.885 94.484 114.885 93.5C114.885 92.504 114.543 91.664 113.859 90.98C113.175 90.284 112.335 89.936 111.339 89.936C110.343 89.936 109.503 90.284 108.819 90.98C108.135 91.664 107.793 92.504 107.793 93.5C107.793 94.484 108.135 95.33 108.819 96.038ZM117.508 89H125.068V90.152H121.882V98H120.694V90.152H117.508V89ZM128.964 93.32L133.788 98H132.204L127.704 93.662V98H126.516V89H127.704V92.978L131.988 89H133.608L128.964 93.32ZM142.254 90.764V89H143.442V98H142.254V96.236C141.426 97.556 140.214 98.216 138.618 98.216C137.334 98.216 136.236 97.76 135.324 96.848C134.424 95.936 133.974 94.82 133.974 93.5C133.974 92.18 134.424 91.064 135.324 90.152C136.236 89.24 137.334 88.784 138.618 88.784C140.214 88.784 141.426 89.444 142.254 90.764ZM136.188 96.038C136.872 96.722 137.712 97.064 138.708 97.064C139.704 97.064 140.544 96.722 141.228 96.038C141.912 95.33 142.254 94.484 142.254 93.5C142.254 92.504 141.912 91.664 141.228 90.98C140.544 90.284 139.704 89.936 138.708 89.936C137.712 89.936 136.872 90.284 136.188 90.98C135.504 91.664 135.162 92.504 135.162 93.5C135.162 94.484 135.504 95.33 136.188 96.038ZM148.783 89H152.437V98H151.249V94.544H149.701L146.929 98H145.417L148.261 94.508C147.529 94.4 146.929 94.1 146.461 93.608C146.005 93.104 145.777 92.498 145.777 91.79C145.777 90.986 146.065 90.32 146.641 89.792C147.241 89.264 147.955 89 148.783 89ZM148.783 93.428H151.249V90.152H148.783C148.267 90.152 147.835 90.308 147.487 90.62C147.139 90.92 146.965 91.31 146.965 91.79C146.965 92.27 147.139 92.666 147.487 92.978C147.835 93.278 148.267 93.428 148.783 93.428ZM160.645 95.93L166.009 89H167.017V98H165.829V91.07L160.465 98H159.457V89H160.645V95.93ZM175.902 92.924V89H177.09V98H175.902V94.076H170.718V98H169.53V89H170.718V92.924H175.902ZM184.966 98.198V101.6H183.778V98.198C182.35 98.066 181.21 97.568 180.358 96.704C179.494 95.816 179.062 94.748 179.062 93.5C179.062 92.252 179.494 91.184 180.358 90.296C181.21 89.432 182.35 88.934 183.778 88.802V85.4H184.966V88.802C186.394 88.934 187.534 89.432 188.386 90.296C189.25 91.184 189.682 92.252 189.682 93.5C189.682 94.748 189.25 95.816 188.386 96.704C187.534 97.568 186.394 98.066 184.966 98.198ZM183.778 97.028V89.972C182.71 90.08 181.852 90.458 181.204 91.106C180.568 91.754 180.25 92.552 180.25 93.5C180.25 94.448 180.568 95.246 181.204 95.894C181.852 96.542 182.71 96.92 183.778 97.028ZM184.966 89.972V97.028C186.034 96.92 186.886 96.542 187.522 95.894C188.17 95.246 188.494 94.448 188.494 93.5C188.494 92.552 188.17 91.754 187.522 91.106C186.886 90.458 186.034 90.08 184.966 89.972ZM199.202 96.866C198.278 97.766 197.162 98.216 195.854 98.216C194.522 98.216 193.4 97.766 192.488 96.866C191.576 95.954 191.12 94.832 191.12 93.5C191.12 92.168 191.576 91.052 192.488 90.152C193.4 89.24 194.522 88.784 195.854 88.784C197.174 88.784 198.29 89.24 199.202 90.152C200.126 91.052 200.588 92.168 200.588 93.5C200.588 94.82 200.126 95.942 199.202 96.866ZM193.334 96.038C194.018 96.722 194.858 97.064 195.854 97.064C196.85 97.064 197.69 96.722 198.374 96.038C199.058 95.33 199.4 94.484 199.4 93.5C199.4 92.504 199.058 91.664 198.374 90.98C197.69 90.284 196.85 89.936 195.854 89.936C194.858 89.936 194.018 90.284 193.334 90.98C192.65 91.664 192.308 92.504 192.308 93.5C192.308 94.484 192.65 95.33 193.334 96.038ZM207.4 88.784C208.684 88.784 209.776 89.24 210.676 90.152C211.588 91.064 212.044 92.18 212.044 93.5C212.044 94.82 211.588 95.936 210.676 96.848C209.776 97.76 208.684 98.216 207.4 98.216C205.804 98.216 204.592 97.556 203.764 96.236V101.6H202.576V89H203.764V90.764C204.592 89.444 205.804 88.784 207.4 88.784ZM204.79 96.038C205.474 96.722 206.314 97.064 207.31 97.064C208.306 97.064 209.146 96.722 209.83 96.038C210.514 95.33 210.856 94.484 210.856 93.5C210.856 92.504 210.514 91.664 209.83 90.98C209.146 90.284 208.306 89.936 207.31 89.936C206.314 89.936 205.474 90.284 204.79 90.98C204.106 91.664 203.764 92.504 203.764 93.5C203.764 94.484 204.106 95.33 204.79 96.038ZM221.472 89H222.84V98H221.652V90.818L218.502 95.93H218.358L215.208 90.818V98H214.02V89H215.388L218.43 93.932L221.472 89ZM233.098 90.764V89H234.286V98H233.098V96.236C232.27 97.556 231.058 98.216 229.462 98.216C228.178 98.216 227.08 97.76 226.168 96.848C225.268 95.936 224.818 94.82 224.818 93.5C224.818 92.18 225.268 91.064 226.168 90.152C227.08 89.24 228.178 88.784 229.462 88.784C231.058 88.784 232.27 89.444 233.098 90.764ZM227.032 96.038C227.716 96.722 228.556 97.064 229.552 97.064C230.548 97.064 231.388 96.722 232.072 96.038C232.756 95.33 233.098 94.484 233.098 93.5C233.098 92.504 232.756 91.664 232.072 90.98C231.388 90.284 230.548 89.936 229.552 89.936C228.556 89.936 227.716 90.284 227.032 90.98C226.348 91.664 226.006 92.504 226.006 93.5C226.006 94.484 226.348 95.33 227.032 96.038ZM244.181 89V96.848H245.621V100.412H244.433V98H236.801V89H237.989V96.848H242.993V89H244.181ZM248.606 95.93L253.97 89H254.978V98H253.79V91.07L248.426 98H247.418V89H248.606V95.93ZM260.316 89H263.97V98H262.782V94.544H261.234L258.462 98H256.95L259.794 94.508C259.062 94.4 258.462 94.1 257.994 93.608C257.538 93.104 257.31 92.498 257.31 91.79C257.31 90.986 257.598 90.32 258.174 89.792C258.774 89.264 259.488 89 260.316 89ZM260.316 93.428H262.782V90.152H260.316C259.8 90.152 259.368 90.308 259.02 90.62C258.672 90.92 258.498 91.31 258.498 91.79C258.498 92.27 258.672 92.666 259.02 92.978C259.368 93.278 259.8 93.428 260.316 93.428Z" fill="#2D3032"/>
</svg>
