<svg width="135" height="42" viewBox="0 0 135 42" fill="none" xmlns="http://www.w3.org/2000/svg">
<path d="M112.087 0.066391V25.3116H75.645V4.35113L79.5138 8.04852V23.407L108.191 23.4389V6.62191L93.8607 20.0684L75.8354 2.89749V0.105713L107.238 0.066391L105.472 1.95133L80.2395 1.93167L93.8607 14.9334L109.03 0.066391H112.087Z" fill="white"/>
<path d="M119.81 17.6784C120.391 20.1396 122.227 21.2185 125.176 21.2185C128.117 21.2185 129.376 20.1015 129.376 18.3075C129.376 16.3132 128.147 15.4469 123.789 14.4725C116.854 12.9071 115.139 10.4815 115.139 7.17237C115.139 2.90114 118.461 0 124.494 0C131.261 0 133.955 3.49833 134.321 7.08267H128.769C128.503 5.57496 127.636 3.937 124.351 3.937C122.115 3.937 120.764 4.82541 120.764 6.56535C120.764 8.26967 121.847 8.96024 125.963 9.87936C133.375 11.5591 135 14.2108 135 17.6661C135 22.1413 131.48 25.2108 124.743 25.2108C118.274 25.2108 114.868 22.1487 114.257 17.6809H119.81V17.6784Z" fill="white"/>
<path d="M50.3452 0.0971069H60.7186C68.3386 0.0971069 73.3189 4.92251 73.3189 12.3615C73.3189 19.6998 68.4855 25.2575 60.4809 25.2575H50.3452V0.0971069ZM56.0027 20.8622H60.2446C65.2607 20.8622 67.4774 17.2742 67.4774 12.375C67.4774 8.26479 65.4012 4.49244 60.2778 4.49244H56.0027V20.8622Z" fill="white"/>
<path d="M57.6735 40.3518H50.3403V31.4567H57.6735V33.2357H52.7186V34.9512H56.6164V36.7302H52.7186V38.5728H57.6735V40.3518ZM64.0786 31.4567H66.7212L63.7482 35.9042L66.7872 40.3518H64.1447L62.2948 37.5562L60.445 40.3518H57.8025L60.8414 35.9042L57.8685 31.4567H60.4979L62.2948 34.2523L64.0786 31.4567ZM67.45 31.4567H72.9993C73.9242 31.4567 74.5937 31.66 75.0076 32.0667C75.4304 32.4648 75.6419 33.1087 75.6419 33.9982V35.2689C75.6419 36.1584 75.4304 36.8065 75.0076 37.2131C74.5937 37.6113 73.9242 37.8103 72.9993 37.8103H69.8282V40.3518H67.45V31.4567ZM73.2636 33.9982C73.2636 33.4899 72.9993 33.2357 72.4708 33.2357H69.8282V36.0313H72.4708C72.9993 36.0313 73.2636 35.7772 73.2636 35.2689V33.9982ZM76.8305 31.4567H82.3799C83.3048 31.4567 83.9743 31.66 84.3882 32.0667C84.811 32.4648 85.0225 33.1087 85.0225 33.9982V35.1418C85.0225 35.8449 84.8992 36.3914 84.6525 36.781C84.4147 37.1707 84.0315 37.4291 83.5029 37.5562L85.1546 40.3518H82.578L81.0586 37.6833H79.2088V40.3518H76.8305V31.4567ZM82.6441 33.9982C82.6441 33.4899 82.3799 33.2357 81.8514 33.2357H79.2088V35.9042H81.8514C82.3799 35.9042 82.6441 35.6501 82.6441 35.1418V33.9982ZM93.6733 40.3518H86.3401V31.4567H93.6733V33.2357H88.7184V34.9512H92.6161V36.7302H88.7184V38.5728H93.6733V40.3518ZM94.4497 38.5092C96.8632 38.6363 98.4972 38.6998 99.3516 38.6998C99.5543 38.6998 99.7128 38.6448 99.8273 38.5347C99.9506 38.4161 100.012 38.2593 100.012 38.0645V36.9208H96.9734C96.0485 36.9208 95.3746 36.7217 94.9519 36.3236C94.5378 35.917 94.3308 35.2689 94.3308 34.3794V33.9982C94.3308 33.1087 94.5378 32.4648 94.9519 32.0667C95.3746 31.66 96.0485 31.4567 96.9734 31.4567H101.611V33.2357H97.5018C96.9734 33.2357 96.7092 33.4899 96.7092 33.9982V34.2523C96.7092 34.7606 96.9734 35.0147 97.5018 35.0147H99.8802C100.743 35.0147 101.378 35.2096 101.783 35.5993C102.188 35.989 102.391 36.5989 102.391 37.4291V38.0645C102.391 38.8947 102.188 39.5046 101.783 39.8943C101.378 40.284 100.743 40.4789 99.8802 40.4789C99.431 40.4789 98.9553 40.4704 98.4532 40.4534L97.2376 40.4026C96.3391 40.3603 95.4099 40.301 94.4497 40.2247V38.5092ZM103.301 38.5092C105.715 38.6363 107.349 38.6998 108.203 38.6998C108.406 38.6998 108.564 38.6448 108.679 38.5347C108.802 38.4161 108.864 38.2593 108.864 38.0645V36.9208H105.825C104.9 36.9208 104.226 36.7217 103.803 36.3236C103.389 35.917 103.182 35.2689 103.182 34.3794V33.9982C103.182 33.1087 103.389 32.4648 103.803 32.0667C104.226 31.66 104.9 31.4567 105.825 31.4567H110.463V33.2357H106.353C105.825 33.2357 105.561 33.4899 105.561 33.9982V34.2523C105.561 34.7606 105.825 35.0147 106.353 35.0147H108.732C109.595 35.0147 110.229 35.2096 110.634 35.5993C111.04 35.989 111.242 36.5989 111.242 37.4291V38.0645C111.242 38.8947 111.04 39.5046 110.634 39.8943C110.229 40.284 109.595 40.4789 108.732 40.4789C108.283 40.4789 107.807 40.4704 107.305 40.4534L106.089 40.4026C105.191 40.3603 104.261 40.301 103.301 40.2247V38.5092Z" fill="white"/>
<path d="M38.8985 41.6102H4.29934C1.92544 41.6102 0 39.7596 0 37.4753V4.20006C0 1.917 1.92416 0.0652313 4.29934 0.0652313H38.8985C41.2724 0.0652313 43.1979 1.91577 43.1979 4.20006V37.4753C43.1979 39.7584 41.2724 41.6102 38.8985 41.6102Z" fill="white"/>
<path d="M35.0056 19.4694C35.0056 21.4711 33.6743 23.1729 31.8166 23.8008C31.5316 25.7656 29.7761 27.2758 27.6578 27.2758C25.9227 27.2758 24.4342 26.2658 23.7915 24.8244C23.1834 25.0013 22.542 25.0972 21.875 25.0972C21.2694 25.0972 20.6817 25.0185 20.1259 24.8699C19.4717 26.2879 17.9973 27.277 16.2814 27.277C14.1503 27.277 12.3909 25.7534 12.115 23.7763C10.2943 23.1299 9 21.4477 9 19.4706C9 17.5107 10.2777 15.8371 12.0792 15.1797C11.6486 14.5457 11.3995 13.79 11.3995 12.979C11.3995 10.7451 13.2815 8.93387 15.603 8.93387C16.4667 8.93387 17.2665 9.18208 17.936 9.61338C18.3052 7.74319 20.0135 6.33255 22.0629 6.33255C24.0905 6.33255 25.7809 7.71001 26.1769 9.54703C26.8222 9.15874 27.5849 8.93387 28.4039 8.93387C30.7242 8.93387 32.6074 10.7439 32.6074 12.979C32.6074 13.7912 32.3583 14.5457 31.9277 15.1797C33.7292 15.8371 35.0056 17.5107 35.0056 19.4694Z" fill="#006A19"/>
<path d="M24.1387 24.8201C24.1387 24.8201 21.2091 28.0616 24.5361 33.7619C24.8249 34.2559 25.2618 34.6663 25.8061 34.8863C26.0233 34.9747 26.2648 35.0374 26.5178 35.0435C27.4275 35.0657 29.0118 35.8054 29.6187 36.636H12.9004C12.9004 36.636 13.934 34.9231 16.2568 34.6602C16.4932 34.6331 16.727 34.5827 16.9455 34.4906C17.6495 34.1932 18.9118 33.3392 19.184 30.9959C19.2159 30.7219 19.2606 30.4479 19.313 30.1764C19.5161 29.1036 19.8445 26.2922 18.0532 24.9897C18.0532 24.9897 19.7525 24.4847 20.8487 25.0855C20.9931 25.1654 21.1643 25.1838 21.324 25.1347C21.8428 24.9762 23.0438 24.6665 24.1387 24.8201Z" fill="#D36300"/>
</svg>
